HIERARCHY
ROOT Hips
{
  OFFSET 0 0 0
  CHANNELS 6 Xposition Yposition Zposition Zrotation Xrotation Yrotation
  JOINT Spine
  {
    OFFSET 0 8.08348 0
    CHANNELS 3 Zrotation Xrotation Yrotation
    JOINT Spine1
    {
      OFFSET 0 24.6145 0
      CHANNELS 3 Zrotation Xrotation Yrotation
      JOINT Neck
      {
        OFFSET 0 24.5134 2.22849
        CHANNELS 3 Zrotation Xrotation Yrotation
        JOINT Head
        {
          OFFSET 0 13.8011 -1.97158
          CHANNELS 3 Zrotation Xrotation Yrotation
          End Site
          {
            OFFSET 0 19.7158 0
          }
        }
      }
      JOINT LeftShoulder
      {
        OFFSET 3.94856 23.7669 -0.001842
        CHANNELS 3 Zrotation Xrotation Yrotation
        JOINT LeftArm
        {
          OFFSET 8.44442 0 0
          CHANNELS 3 Zrotation Xrotation Yrotation
          JOINT LeftForeArm
          {
            OFFSET 36.6799 0 0
            CHANNELS 3 Zrotation Xrotation Yrotation
            JOINT LeftHand
            {
              OFFSET 28.1618 0 0
              CHANNELS 3 Zrotation Xrotation Yrotation
              End Site
              {
                OFFSET 14.7869 0 0
              }
            }
          }
        }
      }
      JOINT RightShoulder
      {
        OFFSET -3.93736 23.7669 -0.001842
        CHANNELS 3 Zrotation Xrotation Yrotation
        JOINT RightArm
        {
          OFFSET -8.44442 0 0
          CHANNELS 3 Zrotation Xrotation Yrotation
          JOINT RightForeArm
          {
            OFFSET -36.6799 0 0
            CHANNELS 3 Zrotation Xrotation Yrotation
            JOINT RightHand
            {
              OFFSET -28.1618 0 0
              CHANNELS 3 Zrotation Xrotation Yrotation
              End Site
              {
                OFFSET -14.7869 0 0
              }
            }
          }
        }
      }
    }
  }
  JOINT LeftUpLeg
  {
    OFFSET 9.8579 0 0
    CHANNELS 3 Zrotation Xrotation Yrotation
    JOINT LeftLeg
    {
      OFFSET 0 -43.507 0
      CHANNELS 3 Zrotation Xrotation Yrotation
      JOINT LeftFoot
      {
        OFFSET 0 -37.4368 0
        CHANNELS 3 Zrotation Xrotation Yrotation
        JOINT LeftToeBase
        {
          OFFSET 0 -6.40764 14.7869
          CHANNELS 3 Zrotation Xrotation Yrotation
          End Site
          {
            OFFSET 0 0 3.94316
          }
        }
      }
    }
  }
  JOINT RightUpLeg
  {
    OFFSET -9.8579 0 0
    CHANNELS 3 Zrotation Xrotation Yrotation
    JOINT RightLeg
    {
      OFFSET 0 -43.507 0
      CHANNELS 3 Zrotation Xrotation Yrotation
      JOINT RightFoot
      {
        OFFSET 0 -37.4368 0
        CHANNELS 3 Zrotation Xrotation Yrotation
        JOINT RightToeBase
        {
          OFFSET 0 -6.40764 14.7869
          CHANNELS 3 Zrotation Xrotation Yrotation
          End Site
          {
            OFFSET 0 0 3.94316
          }
        }
      }
    }
  }
}
MOTION
Frames:	18
Frame Time:	0.0166667
17.3992 96.2279 -303.351 1.50497 0.613606 -0.713085 0.244279 -0.984659 -1.42557 0.342299 2.05732 -0.478595 -0.459316 16.1649 -0.071725 2.8615 -10.0585 0.578183 15.0199 -0.820662 0.792106 -19.3775 -2.20379 2.0781 2.67985 -2.39203 -2.4809 0.018743 -2.33446 -2.47128 -12.4427 1.43197 -0.804323 16.7855 -1.76615 -9.94941 -0.423759 -1.92447 4.29601 -2.07419 -1.91819 0.52957 0.251493 8.63739 2.10669 -4.40588 -2.94565 1.5133 3.70651 -6.77864 11.5312 -1.2424e-017 0 -4.77083e-015 -1.5971 5.42729 2.68033 4.99097 0.802862 5.25711 -5.15013 -6.85912 -28.0236 -4.96962e-017 0 3.18055e-015 
17.4095 96.2279 -303.347 1.53453 0.657677 -0.688355 0.234789 -1.04439 -1.4134 0.381668 2.00844 -0.47858 -0.612421 16.3849 -0.083233 2.99695 -10.193 0.599354 14.7879 -0.759887 0.603074 -19.3343 -2.2068 2.18038 2.64981 -2.44954 -2.4555 0.318147 -2.39965 -2.47511 -12.457 1.50074 -0.804348 16.824 -1.84822 -9.94987 -0.413638 -1.86965 4.237 -1.93523 -1.86356 0.543533 0.21741 8.59098 2.15809 -4.40196 -2.94022 1.50966 3.72349 -6.7551 11.4487 2.85753e-016 -4.96962e-017 -4.77083e-015 -1.63092 5.39266 2.73662 4.99085 0.790663 5.2044 -5.15405 -6.86745 -28.0514 2.48481e-017 0 9.54166e-015 
17.413 96.2279 -303.332 1.52467 0.633494 -0.662145 0.284553 -1.03221 -1.43559 0.350062 2.02116 -0.485689 -0.646353 16.4074 -0.086475 3.02433 -10.1664 0.601761 14.7082 -0.736901 0.555743 -19.4175 -2.2939 2.25659 2.65682 -2.48272 -2.47756 0.128302 -2.42799 -2.38536 -12.3987 1.50605 -0.80435 16.858 -1.98558 -9.95053 -0.401088 -1.86494 4.23121 -1.93644 -1.85863 0.501579 0.233079 8.63633 2.11939 -4.41655 -2.97443 1.58972 3.66985 -6.78394 11.3269 -1.2424e-017 0 1.59028e-015 -1.62 5.48522 2.72462 4.9886 0.666261 5.17977 -5.17054 -6.80784 -28.039 0 0 -9.54166e-015 
17.4163 96.2272 -303.327 1.54579 0.666446 -0.639538 0.30185 -1.08907 -1.4565 0.267621 2.1281 -0.491473 -0.520501 16.1768 -0.079505 2.93935 -9.92848 0.585069 14.804 -0.756282 0.683079 -19.6264 -2.61133 2.18826 2.65298 -2.38124 -2.49136 -0.013867 -2.32332 -2.41517 -12.3218 1.44188 -0.813261 16.9485 -2.11717 -9.99955 -0.415928 -1.98201 4.2823 -1.89137 -1.97412 0.463192 0.213718 8.60206 2.09281 -4.41581 -2.96948 1.56179 3.70464 -6.7589 11.4432 -1.2424e-017 -9.93923e-017 -3.18055e-015 -1.64175 5.45466 2.72636 4.99217 0.675185 5.1699 -5.16984 -6.83949 -28.0591 -2.75869e-033 -4.96962e-017 -3.18055e-015 
17.4092 96.2202 -303.319 1.54176 0.657143 -0.635487 0.302237 -1.08851 -1.46417 0.348191 2.08385 -0.495511 -0.660093 16.3534 -0.070749 2.97957 -9.94568 0.602563 14.5724 -0.711544 0.525654 -19.618 -2.78864 2.33214 2.56907 -2.41614 -2.46413 0.148276 -2.36403 -2.37108 -12.3513 1.51759 -0.773565 17.0375 -2.31699 -10.0024 -0.42084 -1.99295 4.25002 -1.52685 -1.98364 0.4722 0.202041 8.62192 2.19539 -4.37204 -2.97283 1.47903 3.62796 -6.77835 11.3375 -1.98785e-016 -9.93923e-017 -4.77083e-015 -1.62769 5.45712 2.6981 4.98028 0.700401 5.15307 -5.15181 -6.87275 -28.0272 -1.2424e-016 9.93923e-017 -6.36111e-015 
17.403 96.2132 -303.304 1.51772 0.599346 -0.632915 0.358093 -1.04868 -1.47532 0.331743 2.12259 -0.499094 -0.679047 16.333 -0.050935 2.97844 -9.83192 0.618918 14.5038 -0.717064 0.523532 -19.7407 -2.81695 2.35184 2.58181 -2.39375 -2.48692 -0.039352 -2.33699 -2.23573 -12.3234 1.53864 -0.743274 17.1542 -2.3694 -10.002 -0.321882 -2.17101 4.20114 -1.63817 -2.16791 0.608392 0.262849 8.67428 2.09258 -4.43411 -2.92934 1.45533 3.67407 -6.86208 11.4543 7.45443e-017 -9.93923e-017 -3.18055e-015 -1.59873 5.52667 2.78316 4.98053 0.692456 5.07281 -5.14403 -6.90365 -28.0381 -7.45443e-017 4.96962e-017 -3.18055e-015 
17.3967 96.2128 -303.3 1.53755 0.620331 -0.644354 0.350464 -1.08043 -1.4552 0.375959 2.09947 -0.493074 -0.781965 16.4754 -0.075071 3.05955 -9.82492 0.612169 14.3571 -0.601811 0.423133 -19.8688 -2.79255 2.36233 2.57542 -2.5177 -2.51984 -0.128594 -2.45855 -2.29995 -12.3081 1.65232 -0.682092 17.2382 -2.7907 -10.0124 -0.318955 -2.22586 4.16249 -1.59409 -2.22134 0.508548 0.246041 8.64627 2.06047 -4.42755 -2.91244 1.53427 3.6454 -6.86631 11.4009 2.85753e-016 0 4.77083e-015 -1.6139 5.48181 2.73312 4.9739 0.754439 5.15362 -5.16491 -6.93443 -28.0546 -2.48481e-017 4.96962e-017 -3.18055e-015 
17.384 96.2083 -303.292 1.52644 0.582467 -0.661371 0.384285 -1.06792 -1.42359 0.384288 2.16968 -0.48315 -0.813955 16.4524 -0.106916 3.09728 -9.72596 0.584492 14.3836 -0.62084 0.455097 -20.2557 -2.60278 2.28863 2.78652 -2.66565 -2.55911 -0.281681 -2.59808 -2.19301 -12.1818 1.60086 -0.658692 17.3168 -2.76107 -10.093 -0.290861 -2.41621 4.2201 -1.54168 -2.41202 0.482424 0.281645 8.69076 2.05661 -4.45332 -2.91256 1.63304 3.64869 -6.9083 11.3243 2.23633e-016 -9.93923e-017 1.59028e-015 -1.59383 5.50846 2.7683 4.97205 0.782818 5.12212 -5.18395 -6.96226 -28.0391 -1.65521e-032 -2.98177e-016 -3.18055e-015 
17.3624 96.2034 -303.289 1.52384 0.564726 -0.689781 0.367968 -1.08074 -1.35469 0.491553 2.25211 -0.46257 -0.955555 16.4558 -0.159906 3.22725 -9.66239 0.556931 14.4553 -0.699301 0.474565 -20.9082 -2.02787 2.21083 3.12478 -2.97275 -2.66162 -0.07835 -2.89886 -2.03958 -11.9791 1.69563 -0.594439 17.3458 -2.7251 -10.2088 -0.342427 -2.68475 4.2758 -1.33154 -2.6772 0.45045 0.303665 8.70237 2.10841 -4.47299 -2.8826 1.59791 3.64614 -6.91738 11.3498 -1.49089e-016 -4.96962e-017 -1.59028e-015 -1.57576 5.4938 2.77806 4.9664 0.853666 5.16626 -5.18502 -7.0152 -28.0776 9.93923e-017 -9.93923e-017 3.18055e-015 
17.3455 96.201 -303.292 1.52809 0.563163 -0.696997 0.347854 -1.10146 -1.3068 0.618763 2.3344 -0.449407 -1.18151 16.2875 -0.163118 3.50676 -9.29615 0.606936 14.2365 -0.529534 0.521709 -21.3167 -1.92548 2.02361 3.23374 -3.43501 -2.87384 0.769752 -3.36717 -1.95854 -11.7357 1.74065 -0.450156 17.3269 -2.92334 -10.4311 -0.410128 -2.85166 4.3893 -1.23467 -2.84049 0.419855 0.286525 8.6987 2.21946 -4.42505 -2.86835 1.53664 3.55506 -6.93827 11.3141 2.23633e-016 -1.49089e-016 1.59028e-015 -1.57003 5.48073 2.71626 4.96937 0.880498 5.27478 -5.20726 -7.02964 -28.1223 -2.48481e-017 0 6.36111e-015 
17.3305 96.1957 -303.299 1.5295 0.549426 -0.685192 0.381812 -1.11993 -1.25729 0.579758 2.47118 -0.433 -0.964398 16.1413 -0.180978 3.27161 -9.03203 0.530728 13.9885 -0.384164 0.507279 -21.6179 -1.5009 1.92428 3.08039 -4.4747 -3.3946 0.982529 -4.40041 -1.95645 -11.3744 1.71094 -0.249738 17.3909 -3.02773 -10.6323 -0.551246 -3.06944 4.2494 -0.80341 -3.05275 0.533854 0.329997 8.66997 2.15612 -4.47776 -2.78729 1.56555 3.60535 -7.0024 11.3305 -1.73937e-016 9.93923e-017 -0 -1.56609 5.44663 2.66842 4.98686 0.983101 5.32002 -5.26375 -7.0745 -28.1328 1.49089e-016 9.93923e-017 3.18055e-015 
17.3136 96.1883 -303.308 1.5444 0.521545 -0.650827 0.463435 -1.11757 -1.21208 0.445774 2.54349 -0.415599 -0.593952 16.069 -0.240252 2.82846 -8.65197 0.362726 13.5761 -0.263637 0.345698 -21.7383 -1.32161 1.80779 3.15175 -4.89473 -3.57425 0.103547 -4.79862 -2.11163 -11.1588 1.57602 -0.090554 17.3087 -4.96063 -10.795 -0.371535 -2.61506 4.12003 -1.23268 -2.60873 0.65182 0.306308 8.668 2.29149 -4.43769 -2.74259 1.53459 3.56372 -7.02823 11.2126 7.45443e-017 9.93923e-017 3.18055e-015 -1.57582 5.44262 2.52393 5.00599 1.05566 5.39678 -5.30567 -7.12525 -28.1034 2.48481e-017 0 -0 
17.3047 96.1768 -303.312 1.56934 0.482589 -0.595443 0.5836 -1.12188 -1.17517 0.235454 2.65838 -0.399101 -0.285196 15.8687 -0.260638 2.61389 -8.11149 0.282835 13.2283 -0.135747 0.254075 -21.9503 -1.45326 1.47798 3.01609 -4.63309 -3.65861 -0.673811 -4.52502 -2.04809 -10.9311 1.54653 -0.048647 17.6721 -5.38379 -10.8522 -0.322524 -2.84564 4.1469 -1.11548 -2.84024 0.642021 0.323109 8.63821 2.36068 -4.486 -2.59434 1.36094 3.57634 -7.14735 11.2513 1.49089e-016 0 -4.77083e-015 -1.60534 5.42811 2.45397 5.03866 1.1914 5.44258 -5.35252 -7.24196 -28.132 2.48481e-017 9.93923e-017 -3.18055e-015 
17.2778 96.1699 -303.327 1.61852 0.460069 -0.4821 0.655792 -1.11725 -1.20801 0.077863 2.70799 -0.406722 -0.180303 15.7305 -0.288391 2.6098 -7.54032 0.240523 12.8733 0.037355 0.120854 -22.3043 -1.3515 1.12477 2.90083 -4.3017 -3.68286 -0.749603 -4.19626 -1.90171 -10.6401 1.67512 -0.002223 17.8883 -5.9915 -10.9159 0.078768 -3.15595 4.51386 -1.66009 -3.16641 0.507499 0.278707 8.60518 2.5115 -4.43819 -2.51637 1.16386 3.55073 -7.14909 11.2257 -4.96962e-017 0 3.18055e-015 -1.63216 5.39558 2.3889 5.05685 1.33056 5.51176 -5.42746 -7.34371 -28.2475 -2.48481e-017 -9.93923e-017 -0 
17.2406 96.1579 -303.336 1.65509 0.400047 -0.324793 0.674939 -1.07347 -1.26915 0.091875 2.66801 -0.427326 -0.228808 15.9705 -0.309924 2.66562 -7.43403 0.227144 12.2779 0.361789 -0.191074 -22.6228 -1.09544 0.840753 2.84831 -4.11609 -3.69023 -0.687756 -4.01404 -1.75168 -10.3476 1.95672 0.132438 18.3517 -5.6892 -10.7739 0.021365 -3.51331 4.41059 -1.38619 -3.52191 0.642177 0.335358 8.57251 2.49596 -4.51712 -2.35141 0.945851 3.51275 -7.25294 11.2718 -1.73937e-016 3.97569e-016 -1.59028e-015 -1.62904 5.4301 2.3376 5.05915 1.42439 5.5769 -5.49353 -7.43926 -28.4142 1.10348e-032 -9.93923e-017 6.36111e-015 
17.1868 96.1466 -303.345 1.6875 0.312792 -0.1091 0.730936 -1.01441 -1.39992 -0.06004 2.77112 -0.46746 -0.136429 15.9306 -0.252584 2.77682 -7.3558 0.307612 11.8465 0.663191 -0.325868 -23.0389 -0.668144 0.499946 2.73416 -4.37635 -3.8683 -0.71657 -4.27233 -1.91375 -9.98955 2.07412 0.244971 18.792 -5.64377 -10.7219 0.118573 -3.71199 4.55195 -1.0194 -3.72238 0.638755 0.372318 8.56296 2.60046 -4.52541 -2.191 0.614536 3.46777 -7.33546 11.3211 -4.47266e-016 1.98785e-016 4.77083e-015 -1.5986 5.52071 2.22853 5.04976 1.47142 5.55967 -5.54565 -7.5233 -28.4959 1.49089e-016 -9.93923e-017 -0 
17.1362 96.1433 -303.356 1.74179 0.31502 0.122664 0.789564 -1.06262 -1.53857 -0.276428 2.89512 -0.508312 0.079496 15.9228 -0.218711 2.7166 -7.43783 0.331602 11.4057 0.965809 -0.525804 -23.4888 -0.163528 0.266036 2.70281 -4.89287 -4.21975 -0.399749 -4.78671 -1.98948 -9.58535 2.16202 0.374241 19.6426 -3.89857 -10.7516 0.050951 -4.79049 4.92766 -0.855663 -4.79631 0.48462 0.375195 8.45824 2.64501 -4.50421 -2.02866 0.348802 3.46933 -7.38536 11.317 -1.2424e-016 1.98785e-016 3.18055e-015 -1.59019 5.5428 2.14151 5.04099 1.46932 5.45465 -5.54922 -7.59513 -28.5357 -1.49089e-016 1.98785e-016 -3.18055e-015 
17.0759 96.1408 -303.384 1.76878 0.324055 0.299345 0.88207 -1.06265 -1.63365 -0.500035 2.97325 -0.534299 0.315455 15.906 -0.215914 2.60047 -7.59914 0.313435 10.9277 1.26506 -0.778315 -23.987 0.32342 0.079424 2.79282 -5.64873 -4.57447 -0.355634 -5.53121 -2.08675 -8.98768 2.36159 0.472523 20.1364 -3.21212 -10.7066 0.08501 -5.52315 5.23115 -0.921815 -5.53104 0.499775 0.374701 8.34109 2.88393 -4.43715 -1.86143 -0.024542 3.38023 -7.44304 11.3015 1.2424e-016 0 -0 -1.55259 5.51463 2.00903 5.02862 1.51462 5.366 -5.654 -7.58066 -28.4917 9.93923e-017 0 -3.18055e-015 
